<svg width="16" height="16" xmlns="http://www.w3.org/2000/svg">
 <g>
      <path fill="#0088cc" d="m9.09624,0.0875c-3.01521,0 -5.47026,2.21747 -5.47026,4.94531l0,0.98906l-2.19248,0l0,6.92344c0,1.63443 1.47424,2.96719 3.28216,2.96719l6.56869,0c1.81175,0 3.28216,-1.33276 3.28216,-2.96719l0,-7.9125c0,-2.72783 -2.45341,-4.94531 -5.47026,-4.94531l-0.00001,0zm-3.28216,4.94531c0,-1.63789 1.47424,-2.96719 3.28216,-2.96719c1.81175,0 3.28216,1.3293 3.28216,2.96719l0,0.98906l-6.56431,0l0,-0.98906l-0.00001,0zm5.47026,8.90156l-6.56869,0c-0.60282,0 -1.09405,-0.44409 -1.09405,-0.98906l0,-4.94531l8.75679,0l0,4.94531c0,0.54497 -0.48959,0.98906 -1.09405,0.98906z"/>
      <path fill="#0088cc" d="m9.09624,10.96719c0,0.54497 -0.49123,0.98906 -1.09405,0.98906c-0.60665,0 -1.09405,-0.44409 -1.09405,-0.98906c0,-0.54843 0.4874,-0.98906 1.09405,-0.98906c0.60227,0 1.09405,0.44063 1.09405,0.98906z"/>
 </g>
</svg>