<svg width="16" height="16" xmlns="http://www.w3.org/2000/svg">
 <g>
    <path fill="#0088cc" d="m9.09261,0.10626c-3.00735,0 -3.95272,1.08921 -5.00906,2.43596l1.77191,1.11005c0.93707,-0.93677 1.43307,-1.57259 3.23714,-1.57259s3.27122,1.3296 3.27122,2.96016l0,0.98672l-10.90844,0l0,6.90702c0,1.63401 1.46714,2.96016 3.27122,2.96016l6.54681,0c1.80408,0 3.27122,-1.32615 3.27122,-2.96016l0,-7.89375c0,-2.7189 -2.44524,-4.93359 -5.45203,-4.93359l0.00002,0.00001zm2.18081,13.81406l-6.5468,0c-0.60081,0 -1.0904,-0.44205 -1.0904,-0.98672l0,-4.93359l8.72762,0l0,4.93359c0,0.54467 -0.49013,0.98672 -1.0904,0.98672l-0.00001,0z" id="svg_2"/>
       <path fill="#0088cc" d="m9.09042,10.96017c0,0.54714 -0.48796,0.98672 -1.09041,0.98672s-1.0904,-0.43958 -1.0904,-0.98672c0,-0.54368 0.48795,-0.98672 1.0904,-0.98672s1.09041,0.44303 1.09041,0.98672z" id="svg_3"/></g>
</svg>